{
	"asset":{
		"generator":"Khronos glTF Blender I/O v4.3.47",
		"version":"2.0"
	},
	"scene":0,
	"scenes":[
		{
			"name":"Scene",
			"nodes":[
				0
			]
		}
	],
	"nodes":[
		{
			"mesh":0,
			"name":"piece_knight_white_02",
			"translation":[
				-0.3238216042518616,
				0.20953074097633362,
				0.023773714900016785
			]
		}
	],
	"materials":[
		{
			"doubleSided":true,
			"name":"chess_set_pieces_white",
			"normalTexture":{
				"index":0
			},
			"pbrMetallicRoughness":{
				"baseColorTexture":{
					"index":1
				},
				"metallicFactor":0,
				"metallicRoughnessTexture":{
					"index":2
				}
			}
		}
	],
	"meshes":[
		{
			"name":"mesh.006",
			"primitives":[
				{
					"attributes":{
						"POSITION":0,
						"NORMAL":1,
						"TEXCOORD_0":2
					},
					"indices":3,
					"material":0
				}
			]
		}
	],
	"textures":[
		{
			"sampler":0,
			"source":0
		},
		{
			"sampler":0,
			"source":1
		},
		{
			"sampler":0,
			"source":2
		}
	],
	"images":[
		{
			"mimeType":"image/jpeg",
			"name":"chess_set_pieces_white_nor_gl_4k",
			"uri":"chess_set_pieces_white_nor_gl_4k.jpg"
		},
		{
			"mimeType":"image/jpeg",
			"name":"chess_set_pieces_white_diff_4k",
			"uri":"chess_set_pieces_white_diff_4k.jpg"
		},
		{
			"mimeType":"image/jpeg",
			"name":"chess_set_pieces_white_arm_4k",
			"uri":"chess_set_pieces_white_arm_4k.jpg"
		}
	],
	"accessors":[
		{
			"bufferView":0,
			"componentType":5126,
			"count":1705,
			"max":[
				0.019403478130698204,
				0.07499857991933823,
				0.024384917691349983
			],
			"min":[
				-0.019391505047678947,
				-3.755149080575393e-09,
				-0.02099723182618618
			],
			"type":"VEC3"
		},
		{
			"bufferView":1,
			"componentType":5126,
			"count":1705,
			"type":"VEC3"
		},
		{
			"bufferView":2,
			"componentType":5126,
			"count":1705,
			"type":"VEC2"
		},
		{
			"bufferView":3,
			"componentType":5123,
			"count":7986,
			"type":"SCALAR"
		}
	],
	"bufferViews":[
		{
			"buffer":0,
			"byteLength":20460,
			"byteOffset":0,
			"target":34962
		},
		{
			"buffer":0,
			"byteLength":20460,
			"byteOffset":20460,
			"target":34962
		},
		{
			"buffer":0,
			"byteLength":13640,
			"byteOffset":40920,
			"target":34962
		},
		{
			"buffer":0,
			"byteLength":15972,
			"byteOffset":54560,
			"target":34963
		}
	],
	"samplers":[
		{
			"magFilter":9729,
			"minFilter":9987
		}
	],
	"buffers":[
		{
			"byteLength":70532,
			"uri":"Horse.bin"
		}
	]
}
