<?xml version="1.0" encoding="UTF-8" standalone="no" ?>
<!DOCTYPE svg PUBLIC "-//W3C//DTD SVG 1.1//EN" "http://www.w3.org/Graphics/SVG/1.1/DTD/svg11.dtd">
<svg xmlns="http://www.w3.org/2000/svg" xmlns:xlink="http://www.w3.org/1999/xlink" version="1.1" width="512" height="512" viewBox="0 0 512 512" xml:space="preserve">
<desc>Created with Fabric.js 3.6.6</desc>
<defs>
</defs>
<rect x="0" y="0" width="100%" height="100%" fill="rgba(255, 255, 255, 0)"></rect>
<g transform="matrix(4.13 0 0 4.13 256.1 256.1)" id="Layer_1"  >
<path style="stroke: none; stroke-width: 1; stroke-dasharray: none; stroke-linecap: butt; stroke-dashoffset: 0; stroke-linejoin: miter; stroke-miterlimit: 4; fill: rgb(255,255,255); fill-rule: nonzero; opacity: 1;"  transform=" translate(-61.44, -61.44)" d="M 5.794 62.906 c 2.755 2.456 5.508 4.778 8.266 6.964 c 3.64 -5.528 7.606 -10.597 11.917 -15.178 c -0.814 -1.533 -1.274 -3.284 -1.274 -5.139 c 0 -0.916 0.111 -1.805 0.324 -2.658 c -4.504 -2.918 -9.139 -6.172 -13.965 -9.798 c -3.569 7.36 -5.567 15.617 -5.567 24.341 h 0.012 l 0 0 v 0.003 H 5.494 c 0 0.592 0.012 1.182 0.03 1.769 L 5.794 62.906 L 5.794 62.906 z M 13.726 32.231 c 4.831 3.644 9.454 6.91 13.938 9.831 c 2 -2.134 4.846 -3.467 7.999 -3.467 c 2.501 0 4.805 0.839 6.65 2.25 c 1.32 -0.875 2.667 -1.719 4.037 -2.524 c 5.708 -3.356 11.833 -6.093 18.41 -8.177 c -0.048 -0.436 -0.07 -0.878 -0.07 -1.322 c 0 -1.674 0.335 -3.27 0.945 -4.721 c -6.681 -5.661 -14.593 -10.674 -23.7 -15.103 c -7.599 2.83 -14.416 7.264 -20.044 12.892 C 18.783 24.995 16.039 28.467 13.726 32.231 L 13.726 32.231 z M 49.604 6.753 c 7.202 3.876 13.627 8.15 19.251 12.867 c 1.88 -1.648 4.27 -2.732 6.9 -2.982 c 0.59 -2.889 1.147 -5.826 1.676 -8.819 c -5.068 -1.511 -10.434 -2.327 -15.989 -2.327 v 0.012 l 0 0 h -0.005 V 5.492 C 57.377 5.492 53.42 5.93 49.604 6.753 L 49.604 6.753 z M 82.68 9.679 c -0.465 2.599 -0.952 5.159 -1.462 7.678 c 3.667 1.376 6.499 4.46 7.526 8.284 c 4.964 -0.365 10.127 -0.436 15.504 -0.2 c -1.036 -1.229 -2.12 -2.417 -3.256 -3.554 C 95.794 16.692 89.583 12.516 82.68 9.679 L 82.68 9.679 z M 108.505 31.204 c -6.871 -0.515 -13.387 -0.528 -19.562 -0.063 c -0.506 2.642 -1.864 4.982 -3.773 6.724 c 1.624 2.503 3.096 5.097 4.411 7.785 c 1.916 3.921 3.494 8.039 4.739 12.354 c 0.379 -0.039 0.764 -0.061 1.156 -0.061 c 4.919 0 9.082 3.24 10.468 7.708 c 3.626 0.127 7.375 0.194 11.267 0.218 c 0.115 -1.463 0.177 -2.938 0.177 -4.427 h -0.012 v -0.003 v -0.002 h 0.012 C 117.385 50.302 114.124 39.925 108.505 31.204 L 108.505 31.204 z M 116.508 71.345 c -3.545 -0.025 -6.974 -0.087 -10.303 -0.197 c -0.889 4.27 -4.266 7.631 -8.547 8.497 c 0.188 5.117 0.012 10.467 -0.542 16.053 c 3.139 -0.331 6.322 -0.787 9.561 -1.36 C 111.56 87.64 114.99 79.823 116.508 71.345 L 116.508 71.345 z M 109.836 99.284 l 0.012 0.057 l -0.066 0.012 c -1.521 1.941 -3.156 3.787 -4.9 5.531 c -11.109 11.109 -26.469 17.982 -43.438 17.984 v 0.012 h -0.002 h -0.003 v -0.012 c -16.969 0 -32.328 -6.875 -43.442 -17.987 C 6.887 93.77 0.013 78.41 0.011 61.441 H 0 v -0.003 l 0 0 h 0.011 c 0 -16.971 6.876 -32.33 17.988 -43.442 S 44.467 0.011 61.437 0.011 V 0 h 0.005 l 0 0 v 0.011 c 16.971 0 32.33 6.874 43.441 17.988 c 11.112 11.109 17.985 26.468 17.985 43.438 h 0.012 v 0.002 v 0.003 h -0.012 C 122.868 75.721 118 88.857 109.836 99.284 L 109.836 99.284 z M 101.239 100.735 c -1.608 0.214 -3.202 0.399 -4.785 0.552 c -0.197 1.415 -0.419 2.844 -0.66 4.29 c 1.826 -1.422 3.563 -2.952 5.198 -4.587 L 101.239 100.735 L 101.239 100.735 z M 89.42 109.882 c 0.56 -2.785 1.036 -5.511 1.429 -8.18 c -10.021 0.521 -19.598 -0.202 -28.866 -2.159 c -1.812 2.149 -4.521 3.52 -7.551 3.52 c -0.225 0 -0.447 -0.009 -0.665 -0.022 c -1.749 4.461 -3.442 8.801 -4.994 12.9 c 4.07 0.943 8.312 1.445 12.665 1.445 v -0.012 h 0.003 h 0.002 v 0.012 C 71.632 117.386 81.188 114.653 89.42 109.882 L 89.42 109.882 z M 43.483 114.436 c 1.699 -4.516 3.395 -8.876 5.118 -13.278 c -2.17 -1.589 -3.667 -4.045 -3.982 -6.859 c -9.941 -3.939 -19.579 -9.404 -29.108 -16.404 c -1.528 2.574 -2.991 5.242 -4.393 8.005 c 2.739 5.619 6.397 10.717 10.772 15.092 C 27.899 106.999 35.263 111.648 43.483 114.436 L 43.483 114.436 z M 8.406 79.288 c 0.882 -1.61 1.787 -3.188 2.714 -4.735 c -1.63 -1.283 -3.259 -2.612 -4.885 -3.984 C 6.728 73.56 7.458 76.477 8.406 79.288 L 8.406 79.288 z M 45.71 45.173 c 0.587 1.342 0.914 2.823 0.914 4.381 c 0 1.048 -0.149 2.063 -0.424 3.023 c 6.021 2.88 11.939 5.166 17.937 6.971 c 2.18 -6.527 4.275 -13.305 6.226 -20.396 c -1.533 -0.976 -2.833 -2.282 -3.801 -3.819 c -6.245 1.964 -12.046 4.547 -17.439 7.717 C 47.969 43.728 46.828 44.438 45.71 45.173 L 45.71 45.173 z M 43.39 57.325 c -1.981 1.973 -4.712 3.191 -7.728 3.191 c -2.202 0 -4.254 -0.651 -5.974 -1.767 c -4.07 4.359 -7.816 9.191 -11.266 14.463 c 8.935 6.604 17.935 11.79 27.171 15.565 c 1.622 -3.236 4.971 -5.459 8.837 -5.459 c 0.372 0 0.737 0.021 1.1 0.062 c 2.297 -6.002 4.599 -12.19 6.833 -18.629 C 56.01 62.831 49.751 60.396 43.39 57.325 L 43.39 57.325 z M 80.367 40.572 c -1.091 0.317 -2.245 0.487 -3.44 0.487 c -0.462 0 -0.92 -0.023 -1.369 -0.075 c -1.923 6.962 -3.978 13.62 -6.116 20.03 c 5.25 1.327 10.606 2.32 16.195 3.051 c 0.813 -1.649 2.027 -3.062 3.518 -4.114 c -1.175 -4.168 -2.683 -8.13 -4.52 -11.89 C 83.369 45.472 81.945 42.979 80.367 40.572 L 80.367 40.572 z M 92.146 79.347 c -4.257 -1.355 -7.386 -5.24 -7.617 -9.889 c -5.808 -0.773 -11.386 -1.821 -16.86 -3.223 c -2.309 6.662 -4.688 13.06 -7.062 19.257 c 2.252 1.81 3.694 4.588 3.694 7.699 c 0 0.41 -0.027 0.813 -0.075 1.211 c 8.756 1.741 17.821 2.329 27.323 1.757 C 92.175 90.272 92.37 84.671 92.146 79.347 L 92.146 79.347 z" stroke-linecap="round" />
</g>
</svg>