<?xml version="1.0" encoding="UTF-8" standalone="no" ?>
<!DOCTYPE svg PUBLIC "-//W3C//DTD SVG 1.1//EN" "http://www.w3.org/Graphics/SVG/1.1/DTD/svg11.dtd">
<svg xmlns="http://www.w3.org/2000/svg" xmlns:xlink="http://www.w3.org/1999/xlink" version="1.1" width="256" height="256" viewBox="0 0 256 256" xml:space="preserve">
<desc>Created with Fabric.js 3.6.6</desc>
<defs>
</defs>
<g transform="matrix(2.49 0 0 2.49 126.11 128.27)" id="Path_32"  >
<path style="stroke: none; stroke-width: 1; stroke-dasharray: none; stroke-linecap: butt; stroke-dashoffset: 0; stroke-linejoin: miter; stroke-miterlimit: 4; fill: rgb(237,237,237); fill-rule: nonzero; opacity: 1;"  transform=" translate(-479.83, -344.46)" d="M 511.607 374.247 v -2.722 a 7.176 7.176 0 0 0 -7.161 -7.164 h -1.435 c -5.443 -7.848 -6.731 -18.493 -6.713 -26.125 c 0 -1.768 0.065 -3.364 0.154 -4.726 H 497.9 a 6.264 6.264 0 0 0 6 -6.474 a 6.918 6.918 0 0 0 -0.536 -2.648 h 2.194 a 2 2 0 0 0 1.96 -1.6 l 5.422 -26.848 a 2 2 0 0 0 -1.96 -2.4 H 496.528 a 2 2 0 0 0 -1.956 1.58 l -2.416 11.241 h -3.439 l 0 -10.821 a 2 2 0 0 0 -2 -2 h -14.2 a 2 2 0 0 0 -2 2 v 10.821 h -3.012 l -2.414 -11.241 a 2 2 0 0 0 -1.954 -1.58 H 448.682 a 2 2 0 0 0 -1.96 2.4 l 5.419 26.848 a 2 2 0 0 0 1.961 1.6 H 456.3 a 6.9 6.9 0 0 0 -0.535 2.648 a 6.261 6.261 0 0 0 6 6.474 h 1.449 c 0.089 1.366 0.156 2.95 0.155 4.721 c 0.018 7.632 -1.268 18.28 -6.712 26.13 h -1.432 a 7.176 7.176 0 0 0 -7.162 7.164 v 2.722 a 7.173 7.173 0 0 0 -6.2 7.088 v 12.046 a 2 2 0 0 0 2 2 H 515.8 a 2 2 0 0 0 2 -2 V 381.335 A 7.174 7.174 0 0 0 511.607 374.247 Z m -55.87 -53.859 l -4.611 -22.848 h 10.4 l 2.414 11.241 a 2 2 0 0 0 1.957 1.58 h 6.626 a 2 2 0 0 0 2 -2 V 297.54 h 10.2 v 10.821 a 2 2 0 0 0 2 2 h 7.056 a 2 2 0 0 0 1.953 -1.58 l 2.416 -11.241 h 10.4 l -4.613 22.848 Z M 513.8 391.382 H 445.861 V 381.335 a 3.2 3.2 0 0 1 3.165 -3.164 h 1.014 l 0.02 0 l 0.019 0 h 30.2 a 2 2 0 1 0 0 -4 H 452.059 v -2.647 a 3.191 3.191 0 0 1 3.163 -3.163 h 9.248 a 2 2 0 0 0 0 -4 h -3.09 c 4.954 -8.585 5.972 -18.761 5.988 -26.13 c 0 -1.749 -0.061 -3.341 -0.146 -4.721 h 12.76 a 2 2 0 1 0 0 -4 h -18.22 a 1.784 1.784 0 0 1 -1.339 -0.644 a 2.864 2.864 0 0 1 0 -3.663 a 1.788 1.788 0 0 1 1.339 -0.644 H 497.9 a 1.788 1.788 0 0 1 1.339 0.644 a 2.865 2.865 0 0 1 0 3.663 a 1.787 1.787 0 0 1 -1.339 0.644 H 490.1 a 2 2 0 1 0 0 4 h 2.347 c -0.085 1.381 -0.145 2.975 -0.145 4.726 c 0.016 7.368 1.034 17.542 5.985 26.125 H 474.991 a 2 2 0 1 0 0 4 h 29.455 a 3.193 3.193 0 0 1 3.163 3.163 v 2.647 h -7.956 a 2 2 0 1 0 0 4 h 9.937 l 0.019 0 l 0.02 0 h 1.012 a 3.2 3.2 0 0 1 3.162 3.164 Z m -23.882 -17.21 h -1.765 a 2 2 0 0 0 0 4 h 1.765 a 2 2 0 1 0 0 -4 Z" stroke-linecap="round" />
</g>
</svg>