<svg xmlns="http://www.w3.org/2000/svg" width="56" height="44" viewBox="0 0 56 44" fill="none">
<g clip-path="url(#clip0_61_142)">
<path d="M39.3514 13.695C39.0072 13.8643 38.6648 14.0493 38.3236 14.2502C37.2957 14.8528 36.2842 15.5907 35.2535 16.4375L33.0508 13.9023C33.8109 13.1937 34.6381 12.5472 35.5131 11.9756C36.2125 11.5188 36.9416 11.1124 37.6901 10.7628C37.9899 10.6123 38.2921 10.47 38.6001 10.3377C37.1452 7.75331 35.054 5.89806 32.6827 4.7561C30.3132 3.61473 27.6602 3.17669 25.0772 3.42733C22.5106 3.67681 20.0197 4.61087 17.9588 6.21664C15.5771 8.07189 13.7652 10.8442 13.0699 14.5161L12.8523 15.665L11.7119 15.8659C10.5954 16.0627 9.59907 16.3321 8.7229 16.6741C7.87415 17.0049 7.11932 17.4114 6.45957 17.891C5.93107 18.2752 5.47432 18.7056 5.08698 19.1717C3.88765 20.6147 3.33173 22.4213 3.34457 24.2497C3.35798 26.1067 3.96057 27.9818 5.07357 29.5261C5.48598 30.0988 5.96782 30.623 6.51498 31.0809C7.06915 31.5453 7.69448 31.9248 8.39565 32.2158C9.0904 32.5034 9.86332 32.7101 10.7173 32.8307H14.6093V36.201H10.6543L10.4449 36.1811C9.22865 36.0259 8.12382 35.7372 7.12398 35.3231C6.09032 34.8951 5.17215 34.3387 4.36482 33.6617C3.60007 33.0217 2.9304 32.2931 2.35932 31.5014C0.840318 29.3955 0.019568 26.8229 0.000318024 24.2637C-0.0183486 21.6747 0.784318 19.0968 2.51623 17.0131C3.07857 16.3373 3.73598 15.716 4.49257 15.1667C5.3734 14.5266 6.3814 13.9843 7.51715 13.5416C8.30173 13.2353 9.13765 12.9794 10.0249 12.7744C11.0265 8.77756 13.1667 5.69778 15.9125 3.55793C18.4809 1.55686 21.5767 0.393233 24.7622 0.0840254C27.9327 -0.224011 31.1982 0.318859 34.1253 1.72903C37.3261 3.27039 40.1144 5.83716 41.9245 9.44927C42.6519 9.33507 43.3816 9.27768 44.1067 9.28236C47.1669 9.30286 50.1203 10.4032 52.4478 12.9191C52.9349 13.4455 53.3963 14.0394 53.8262 14.7035C55.2846 16.9546 56.0306 19.96 55.9991 22.9021C55.9676 25.7875 55.1907 28.6623 53.6063 30.7781C52.5732 32.1567 51.2467 33.2805 49.6566 34.1742C48.1236 35.0362 46.3391 35.6892 44.3336 36.1565L43.9597 36.2022H41.3901V32.8319H43.7801C45.3901 32.4419 46.8099 31.9166 48.0174 31.2384C49.2161 30.5644 50.195 29.7451 50.93 28.763C52.0698 27.241 52.6298 25.0859 52.6537 22.8752C52.6794 20.5567 52.1176 18.2289 51.0186 16.5329C50.7031 16.0457 50.3601 15.6053 49.9943 15.21C48.3499 13.4321 46.2604 12.6544 44.0933 12.6397C42.5189 12.6298 40.8949 13.0093 39.3514 13.695ZM28.0003 24.0318C33.4918 24.0318 37.9456 28.503 37.9456 34.016C37.9456 39.5291 33.4918 44.0003 28.0003 44.0003C22.5088 44.0003 18.0551 39.5291 18.0551 34.016C18.0551 28.503 22.5088 24.0318 28.0003 24.0318ZM33.9999 30.052L24.0523 40.0386C25.1852 40.7887 26.542 41.2256 28.0003 41.2256C31.9658 41.2256 35.1823 37.9965 35.1823 34.0155C35.1823 32.552 34.7466 31.1898 33.9999 30.052ZM22.0013 37.9795L31.9489 27.9929C30.8155 27.2433 29.4587 26.8053 28.0003 26.8053C24.0348 26.8053 20.8183 30.0344 20.8183 34.0155C20.8183 35.4801 21.2541 36.8417 22.0013 37.9795Z" fill="#070707"/>
</g>
<defs>
<clipPath id="clip0_61_142">
<rect width="56" height="44" fill="white"/>
</clipPath>
</defs>
</svg>