<?xml version="1.0" encoding="UTF-8" standalone="no" ?>
<!DOCTYPE svg PUBLIC "-//W3C//DTD SVG 1.1//EN" "http://www.w3.org/Graphics/SVG/1.1/DTD/svg11.dtd">
<svg xmlns="http://www.w3.org/2000/svg" xmlns:xlink="http://www.w3.org/1999/xlink" version="1.1" width="123" height="63" viewBox="0 0 123 63" xml:space="preserve">
<desc>Created with Fabric.js 3.6.6</desc>
<defs>
</defs>
<g transform="matrix(1 0 0 1 61.94 31.73)" id="Layer_1"  >
<path style="stroke: none; stroke-width: 1; stroke-dasharray: none; stroke-linecap: butt; stroke-dashoffset: 0; stroke-linejoin: miter; stroke-miterlimit: 4; fill: rgb(255,255,255); fill-rule: nonzero; opacity: 1;"  transform=" translate(-61.44, -31.23)" d="M 19.13 42.21 a 9.28 9.28 0 0 1 -0.79 -1 c -0.58 -0.8 -1.13 -1.63 -1.65 -2.46 L 14.06 34.6 a 7.29 7.29 0 0 1 -1.51 -3.82 a 2.79 2.79 0 0 1 1.77 -2.73 c -0.09 -1.57 -0.15 -3.16 -0.15 -4.74 c 0 -0.93 0 -1.88 0.05 -2.8 a 7.85 7.85 0 0 1 0.32 -1.74 A 10 10 0 0 1 19 13.11 A 14.49 14.49 0 0 1 21.41 12 c 1.53 -0.56 0.79 -2.9 2.47 -2.94 c 3.92 -0.1 10.37 3.26 12.88 6 a 9.45 9.45 0 0 1 2.57 6.45 l -0.16 6.87 a 1.94 1.94 0 0 1 1.42 1.41 a 5.89 5.89 0 0 1 -0.74 3.62 h 0 c 0 0.06 -0.05 0.06 -0.05 0.11 l -3 4.93 c -0.68 1.11 -1.38 2.25 -2.17 3.29 c -0.93 1.25 -1.7 1 -0.9 2.22 A 8.79 8.79 0 0 0 35 45.28 c -5.74 2.55 -10.25 6.9 -10.25 17.15 H 0 C 0 46.78 13.67 51.76 19.38 43.89 c 0.66 -1 0.49 -0.89 -0.25 -1.68 Z M 54 40.74 c -1.81 -1.6 -4.08 -3 -4.38 -6.33 h -0.2 a 2.56 2.56 0 0 1 -1.28 -0.34 a 3.51 3.51 0 0 1 -1.41 -1.71 c -0.65 -1.5 -1.17 -5.43 0.47 -6.56 l -0.31 -0.2 l 0 -0.44 c -0.06 -0.79 -0.08 -1.75 -0.1 -2.76 c -0.06 -3.7 -0.13 -8.18 -3.11 -9.08 l -1.27 -0.39 l 0.84 -1 a 48.26 48.26 0 0 1 7.45 -7.57 A 19.07 19.07 0 0 1 59.25 0.13 a 10.4 10.4 0 0 1 8.39 2.35 a 15 15 0 0 1 2.25 2.26 a 9.54 9.54 0 0 1 6.72 3.93 a 13.5 13.5 0 0 1 2.19 4.41 a 15.37 15.37 0 0 1 0.59 5 A 12 12 0 0 1 75.9 26.2 a 2.66 2.66 0 0 1 1.09 0.28 c 1.24 0.66 1.28 2.11 1 3.32 c -0.32 1 -0.73 2.18 -1.12 3.16 c -0.47 1.33 -1.15 1.58 -2.48 1.44 c -0.06 3.25 -2.44 4.58 -4.47 6.47 c 5 9.26 24.42 3.15 24.42 21.56 H 29.48 c 0 -18.41 19 -12 24.5 -21.68 Z m 36.23 2.18 a 11.55 11.55 0 0 1 -0.76 -0.94 c -0.55 -0.77 -1.09 -1.57 -1.59 -2.38 l -2.53 -4 a 7 7 0 0 1 -1.47 -3.69 a 2.69 2.69 0 0 1 1.72 -2.63 c -0.09 -1.51 -0.15 -3.05 -0.15 -4.57 c 0 -0.91 0 -1.82 0 -2.71 a 7.23 7.23 0 0 1 0.3 -1.67 a 9.63 9.63 0 0 1 4.3 -5.46 a 13.24 13.24 0 0 1 2.34 -1.12 c 1.47 -0.54 0.76 -2.8 2.38 -2.83 c 3.78 -0.1 10 3.14 12.43 5.77 a 9.11 9.11 0 0 1 2.48 6.22 l -0.16 6.63 a 1.84 1.84 0 0 1 1.37 1.36 a 5.64 5.64 0 0 1 -0.71 3.49 h 0 s -0.05 0 -0.05 0.1 l -2.88 4.76 c -0.66 1.07 -1.33 2.17 -2.09 3.18 c -0.91 1.2 -1.65 1 -0.88 2.14 c 5.52 7.59 18.6 2.8 18.6 17.89 H 99 c 0 -9.73 -4.16 -14.19 -9.53 -16.81 a 8.88 8.88 0 0 0 0.94 -1.08 c 0.63 -0.93 0.47 -0.86 -0.25 -1.62 Z" stroke-linecap="round" />
</g>
</svg>