<svg xmlns="http://www.w3.org/2000/svg" width="47" height="44" viewBox="0 0 47 44" fill="none">
<g clip-path="url(#clip0_61_60)">
<path d="M13.2478 7.94202H33.7523C35.1643 7.94202 36.4503 8.53114 37.3845 9.47829L37.3868 9.47605C38.3197 10.4227 38.8993 11.7294 38.8993 13.1643V30.8358C38.8993 32.2702 38.3186 33.5764 37.386 34.5226C36.4535 35.4689 35.1661 36.058 33.7523 36.058H13.2478C11.8342 36.058 10.5456 35.47 9.6126 34.5234C8.68068 33.5778 8.10071 32.2725 8.10071 30.8358V13.1643C8.10071 11.7324 8.67958 10.428 9.61196 9.47987L9.61912 9.47261C10.5534 8.52825 11.8377 7.94202 13.2478 7.94202ZM18.7538 26.9734H15.098L17.9049 15.9861H23.2585L26.0654 26.9734H22.4095L22.1295 25.233H19.0336L18.7538 26.9734ZM20.19 19.3614L19.6575 22.438H21.4884L20.9734 19.3614H20.19ZM26.9836 26.9734V15.9861H30.4488V26.9734H26.9836ZM41.7948 23.6392V26.5045C41.7948 26.7993 42.0323 27.0402 42.3229 27.0402H46.472C46.7625 27.0402 47 26.7993 47 26.5045V23.6392C47 23.3444 46.7625 23.1035 46.472 23.1035H42.3229C42.0323 23.1035 41.7948 23.3444 41.7948 23.6392ZM41.7948 17.0599V19.9251C41.7948 20.2197 42.0323 20.4608 42.3229 20.4608H46.472C46.7625 20.4608 47 20.2197 47 19.9251V17.0599C47 16.7648 46.7625 16.5241 46.472 16.5241H42.3229C42.0323 16.5241 41.7948 16.7648 41.7948 17.0599ZM41.7948 30.2186V33.0839C41.7948 33.3787 42.0323 33.6196 42.3229 33.6196H46.472C46.7625 33.6196 47 33.3787 47 33.0839V30.2186C47 29.9238 46.7625 29.683 46.472 29.683H42.3229C42.0323 29.683 41.7948 29.9238 41.7948 30.2186ZM41.7948 10.4802V13.3455C41.7948 13.6402 42.0323 13.8811 42.3229 13.8811H46.472C46.7625 13.8811 47 13.6402 47 13.3455V10.4802C47 10.1854 46.7625 9.94446 46.472 9.94446H42.3229C42.0323 9.94446 41.7948 10.1854 41.7948 10.4802ZM5.20516 23.6392V26.5045C5.20516 26.7993 4.96768 27.0402 4.67714 27.0402H0.528016C0.237479 27.0402 0 26.7993 0 26.5045V23.6392C0 23.3444 0.237479 23.1035 0.528016 23.1035H4.67714C4.96768 23.1035 5.20516 23.3444 5.20516 23.6392ZM5.20516 17.0599V19.9251C5.20516 20.2197 4.96768 20.4608 4.67714 20.4608H0.528016C0.237479 20.4608 0 20.2197 0 19.9251V17.0599C0 16.7648 0.237479 16.5241 0.528016 16.5241H4.67714C4.96768 16.5241 5.20516 16.7648 5.20516 17.0599ZM5.20516 30.2186V33.0839C5.20516 33.3787 4.96768 33.6196 4.67714 33.6196H0.528016C0.237479 33.6196 0 33.3787 0 33.0839V30.2186C0 29.9238 0.237479 29.683 0.528016 29.683H4.67714C4.96768 29.683 5.20516 29.9238 5.20516 30.2186ZM5.20516 10.4802V13.3455C5.20516 13.6402 4.96768 13.8811 4.67714 13.8811H0.528016C0.237479 13.8811 0 13.6402 0 13.3455V10.4802C0 10.1854 0.237479 9.94446 0.528016 9.94446H4.67714C4.96768 9.94446 5.20516 10.1854 5.20516 10.4802ZM31.8149 38.7186H34.6388C34.9291 38.7186 35.1667 38.9596 35.1667 39.2544V43.4643C35.1667 43.759 34.9291 44 34.6388 44H31.8149C31.5241 44 31.2869 43.759 31.2869 43.4643V39.2544C31.2869 38.9596 31.5241 38.7186 31.8149 38.7186ZM25.3302 38.7186H28.1541C28.4446 38.7186 28.682 38.9596 28.682 39.2544V43.4643C28.682 43.759 28.4446 44 28.1541 44H25.3302C25.0396 44 24.8021 43.759 24.8021 43.4643V39.2544C24.8021 38.9596 25.0396 38.7186 25.3302 38.7186ZM18.8457 38.7186H21.6696C21.9601 38.7186 22.1976 38.9596 22.1976 39.2544V43.4643C22.1976 43.759 21.9601 44 21.6696 44H18.8457C18.5552 44 18.3177 43.759 18.3177 43.4643V39.2544C18.3177 38.9596 18.5552 38.7186 18.8457 38.7186ZM12.3612 38.7186H15.1851C15.4757 38.7186 15.7131 38.9596 15.7131 39.2544V43.4643C15.7131 43.759 15.4757 44 15.1851 44H12.3612C12.0706 44 11.8333 43.759 11.8333 43.4643V39.2544C11.8333 38.9596 12.0706 38.7186 12.3612 38.7186ZM31.8149 0H34.6388C34.9291 0 35.1667 0.240955 35.1667 0.535746V4.74562C35.1667 5.04041 34.9291 5.28136 34.6388 5.28136H31.8149C31.5241 5.28136 31.2869 5.04041 31.2869 4.74562V0.535746C31.2869 0.240955 31.5241 0 31.8149 0ZM25.3302 0H28.1541C28.4446 0 28.682 0.240955 28.682 0.535746V4.74562C28.682 5.04041 28.4446 5.28136 28.1541 5.28136H25.3302C25.0396 5.28136 24.8021 5.04041 24.8021 4.74562V0.535746C24.8021 0.240955 25.0396 0 25.3302 0ZM18.8457 0H21.6696C21.9601 0 22.1976 0.240955 22.1976 0.535746V4.74562C22.1976 5.04041 21.9601 5.28136 21.6696 5.28136H18.8457C18.5552 5.28136 18.3177 5.04041 18.3177 4.74562V0.535746C18.3177 0.240955 18.5552 0 18.8457 0ZM12.3612 0H15.1851C15.4757 0 15.7131 0.240955 15.7131 0.535746V4.74562C15.7131 5.04041 15.4757 5.28136 15.1851 5.28136H12.3612C12.0706 5.28136 11.8333 5.04041 11.8333 4.74562V0.535746C11.8333 0.240955 12.0706 0 12.3612 0ZM33.7523 10.3477H13.2478C12.8838 10.3472 12.5233 10.4198 12.1869 10.5612C11.8506 10.7025 11.5451 10.9099 11.288 11.1714L11.2835 11.176C11.0258 11.4368 10.8215 11.7468 10.6821 12.088C10.5428 12.4292 10.4713 12.795 10.4716 13.1643V30.8358C10.4716 31.6081 10.785 32.3118 11.2886 32.8227C11.793 33.3344 12.4873 33.6523 13.2478 33.6523H33.7523C34.5118 33.6523 35.2058 33.3337 35.71 32.8221C36.2142 32.3105 36.5284 31.6063 36.5284 30.8358V13.1643C36.5284 12.3928 36.215 11.6882 35.7106 11.1766V11.1721C35.21 10.6639 34.5167 10.3477 33.7523 10.3477Z" fill="black"/>
</g>
<defs>
<clipPath id="clip0_61_60">
<rect width="47" height="44" fill="white"/>
</clipPath>
</defs>
</svg>